# xmcd
#
# Track frame offsets:
#	150
#	13875
#	27516
#	40424
#	54334
#	67947
#	82345
#	98145
#	111948
#	125974
#	140444
#
# Disc length: 2094 seconds
#
# Revision: 0
# Processed by: cddbd v1.5.2PL0 Copyright (c) Steve Scherf et al.
# Submitted via: MusicWizard 7.0.2
#
DISCID=a0082c0b
DTITLE=Burkhard Brozat - Du Und Ich
DYEAR=1900
DGENRE=Schlager
TTITLE0=Zauberei
TTITLE1=Weißt Du Noch
TTITLE2=Zusammensteh`n
TTITLE3=Ich Will Zu Dir
TTITLE4=Lebe Deine Träume
TTITLE5=Halt Dich Fest
TTITLE6=Du Und Ich
TTITLE7=Alles Wird Gut
TTITLE8=Horoskop
TTITLE9=Nur Für Dich
TTITLE10=Schlaf Ein
EXTD=
EXTT0=
EXTT1=
EXTT2=
EXTT3=
EXTT4=
EXTT5=
EXTT6=
EXTT7=
EXTT8=
EXTT9=
EXTT10=
PLAYORDER=
